<svg viewBox="0 0 593 256" fill="currentColor" xmlns="http://www.w3.org/2000/svg">
<path d="M592.407 116.991C592.407 85.6134 558.14 2.87402 461.09 2.87402C364.04 2.87402 329.772 85.6134 329.772 116.991V228.684C329.772 247.144 350.042 258.642 365.737 248.91C402.188 226.26 446.156 179.99 461.09 97.0425C476.023 179.99 519.992 226.26 556.442 248.91C572.103 258.642 592.407 247.144 592.407 228.684V116.991Z" fill="#1CC1BB"/>
<path d="M132.53 0H127.229C89.4967 0 59.1101 12.0178 35.4799 36.7461C11.8497 60.8164 0 91.3978 0 127.832C0 166.206 11.815 197.099 35.757 220.546C59.699 243.647 90.0857 255.353 127.229 255.353H132.53C169.673 255.353 200.094 243.647 224.002 220.546C247.944 197.134 259.759 166.241 259.759 127.832C259.759 91.3978 247.944 60.8164 224.279 36.7461C200.649 12.0178 170.227 0 132.53 0ZM174.87 168.457C163.159 179.021 148.468 183.003 132.149 183.003H127.575C111.256 183.003 96.5649 179.055 84.8538 168.457C73.1426 157.894 68.5344 145.01 68.5344 127.486C68.5344 109.338 73.1772 97.424 84.5765 87.2071C95.7333 76.9556 110.147 72.003 127.298 72.003H132.426C149.577 72.003 163.991 76.9556 175.147 87.2071C186.581 97.4586 191.19 109.338 191.19 127.486C191.19 145.01 186.547 157.894 174.87 168.457Z" fill="#1CC1BB"/>
</svg>
